<?xml version="1.0" encoding="utf-8"?>
<!-- Generator: Adobe Illustrator 17.1.0, SVG Export Plug-In . SVG Version: 6.00 Build 0)  -->
<!DOCTYPE svg PUBLIC "-//W3C//DTD SVG 1.1//EN" "http://www.w3.org/Graphics/SVG/1.1/DTD/svg11.dtd">
<svg version="1.1" id="Layer_1" xmlns="http://www.w3.org/2000/svg"  x="0px" y="0px"
	 width="55px" height="55px" viewBox="0 0.00001 55 55" enable-background="new 0 0.00001 55 55" xml:space="preserve">
<g id="Layer_x0020_1">
	<circle fill="#848C9C" cx="27.5" cy="27.5" r="27.5"/>
</g>
<g enable-background="new    ">
	<path fill="#FFFFFF" d="M39.69238,32.88123c-0.0957,1.96484-0.54297,3.70605-1.98047,5.14453
		c-1.4375,1.4375-3.17969,1.88477-5.14453,1.98047c-1.69336,0.0957-3.37109,0.08008-5.06396,0.08008
		c-1.69336,0-3.37109,0.01563-5.06445-0.08008c-1.96484-0.0957-3.70654-0.54297-5.14404-1.98047
		c-1.43799-1.43848-1.88525-3.17969-1.98096-5.14453c-0.09619-1.69336-0.08008-3.37109-0.08008-5.06445
		s-0.01611-3.37109,0.08008-5.06445c0.0957-1.96484,0.54297-3.70605,1.98096-5.14453c1.4375-1.4375,3.1792-1.88477,5.14404-1.98047
		c1.69336-0.0957,3.37109-0.08008,5.06445-0.08008c1.69287,0,3.37061-0.01563,5.06396,0.08008
		c1.96484,0.0957,3.70703,0.54297,5.14453,1.98047c1.4375,1.43848,1.88477,3.17969,1.98047,5.14453
		c0.09668,1.69336,0.08008,3.37109,0.08008,5.06445S39.78906,31.18787,39.69238,32.88123z M20.26611,18.24744
		c-0.55908,0.22363-0.97412,0.49512-1.40576,0.92676c-0.43115,0.43066-0.70264,0.84668-0.92676,1.40527
		c-0.63867,1.61426-0.49512,5.44824-0.49512,7.2373s-0.14355,5.62305,0.49512,7.2373
		c0.22412,0.55859,0.49561,0.97461,0.92676,1.40527c0.43164,0.43164,0.84668,0.70313,1.40576,0.92676
		c1.61377,0.63965,5.44824,0.49512,7.2373,0.49512c1.78857,0,5.62354,0.14453,7.23682-0.49512
		c0.55957-0.22363,0.97461-0.49512,1.40625-0.92676c0.43066-0.43066,0.70215-0.84668,0.92676-1.40527
		c0.63867-1.61426,0.49512-5.44824,0.49512-7.2373s0.14355-5.62305-0.49512-7.2373
		c-0.22461-0.55859-0.49609-0.97461-0.92676-1.40527c-0.43164-0.43164-0.84668-0.70313-1.40625-0.92676
		c-1.61328-0.63965-5.44824-0.49512-7.23682-0.49512C25.71436,17.75232,21.87988,17.60779,20.26611,18.24744z M27.50342,34.11169
		c-3.48291,0-6.29443-2.8125-6.29443-6.29492s2.81152-6.29492,6.29443-6.29492s6.29443,2.8125,6.29443,6.29492
		S30.98633,34.11169,27.50342,34.11169z M27.50342,23.72693c-2.25244,0-4.08984,1.83691-4.08984,4.08984
		s1.8374,4.08984,4.08984,4.08984s4.08936-1.83691,4.08936-4.08984S29.75586,23.72693,27.50342,23.72693z M34.05371,22.73669
		c-0.81543,0-1.46973-0.65527-1.46973-1.46973c0-0.81543,0.6543-1.46973,1.46973-1.46973c0.81445,0,1.46973,0.6543,1.46973,1.46973
		C35.52344,22.08142,34.86816,22.73669,34.05371,22.73669z"/>
</g>
</svg>
