<?xml version="1.0" encoding="utf-8"?>
<!-- Generator: Adobe Illustrator 17.1.0, SVG Export Plug-In . SVG Version: 6.00 Build 0)  -->
<!DOCTYPE svg PUBLIC "-//W3C//DTD SVG 1.1//EN" "http://www.w3.org/Graphics/SVG/1.1/DTD/svg11.dtd">
<svg version="1.1" id="Layer_1" xmlns="http://www.w3.org/2000/svg"  x="0px" y="0px"
	 width="55px" height="55px" viewBox="0 0.00001 55 55" enable-background="new 0 0.00001 55 55" xml:space="preserve">
<g id="Layer_x0020_1">
	<circle fill="#848C9C" cx="27.5" cy="27.5" r="27.5"/>
</g>
<g enable-background="new    ">
	<path fill="#FFFFFF" d="M37.50488,22.68884c0.01563,0.22363,0.01563,0.44727,0.01563,0.6709
		c0,6.82129-5.19238,14.68164-14.68213,14.68164c-2.92334,0-5.63965-0.84668-7.92383-2.31641
		c0.41504,0.04785,0.81445,0.06348,1.24609,0.06348c2.41211,0,4.63281-0.81445,6.40625-2.2041
		c-2.26855-0.04785-4.16992-1.53418-4.82471-3.5791c0.31934,0.04785,0.63916,0.08008,0.97461,0.08008
		c0.46338,0,0.92627-0.06348,1.35791-0.17578c-2.36475-0.47949-4.1377-2.55566-4.1377-5.06445c0-0.01563,0-0.04785,0-0.06348
		c0.68701,0.38281,1.48535,0.62305,2.33252,0.6543c-1.39014-0.92578-2.30078-2.50781-2.30078-4.29688
		c0-0.95898,0.25586-1.83789,0.70313-2.60449c2.54004,3.13184,6.3584,5.17676,10.63965,5.40039
		c-0.07959-0.38379-0.12744-0.7832-0.12744-1.18262c0-2.84375,2.30029-5.16016,5.16064-5.16016
		c1.48535,0,2.82715,0.62305,3.76953,1.62988c1.16699-0.22363,2.28516-0.65527,3.27539-1.24609
		c-0.38281,1.19824-1.19824,2.2041-2.26855,2.84375c1.03809-0.1123,2.04492-0.39941,2.97168-0.79883
		C39.38965,21.04333,38.51074,21.95349,37.50488,22.68884z"/>
</g>
</svg>
