<?xml version="1.0" encoding="utf-8"?>
<!-- Generator: Adobe Illustrator 17.1.0, SVG Export Plug-In . SVG Version: 6.00 Build 0)  -->
<!DOCTYPE svg PUBLIC "-//W3C//DTD SVG 1.1//EN" "http://www.w3.org/Graphics/SVG/1.1/DTD/svg11.dtd">
<svg version="1.1" id="Layer_1" xmlns="http://www.w3.org/2000/svg"  x="0px" y="0px"
	 width="55px" height="55px" viewBox="0 0.00001 55 55" enable-background="new 0 0.00001 55 55" xml:space="preserve">
<g id="Layer_x0020_1">
	<circle fill="#848C9C" cx="27.5" cy="27.5" r="27.5"/>
</g>
<g enable-background="new    ">
	<path fill="#FFFFFF" d="M41.30664,34.75037c-0.33496,1.56543-1.58105,2.71582-3.08301,2.8916
		c-3.54688,0.39941-7.1416,0.39941-10.72021,0.39941s-7.17334,0-10.71973-0.39941c-1.50195-0.17578-2.74805-1.32617-3.09961-2.8916
		c-0.49512-2.2207-0.49512-4.64941-0.49512-6.93359s0-4.71289,0.51123-6.93359c0.35156-1.56543,1.58154-2.71582,3.0835-2.8916
		c3.54639-0.39941,7.14111-0.39941,10.71973-0.39941s7.17334,0,10.72021,0.39941c1.50195,0.17578,2.74805,1.32617,3.09961,2.8916
		c0.49512,2.2207,0.49512,4.64941,0.49512,6.93359S41.81836,32.52966,41.30664,34.75037z M33.15918,26.95447l-8.18018-5.1123
		c-0.31934-0.20801-0.71875-0.20801-1.03809-0.03223c-0.31982,0.17578-0.52734,0.52734-0.52734,0.89453v10.22461
		c0,0.36719,0.20752,0.71875,0.52734,0.89453c0.15967,0.08008,0.31934,0.12793,0.49512,0.12793
		c0.19189,0,0.3833-0.04785,0.54297-0.16016l8.18018-5.1123c0.30371-0.17578,0.47949-0.51074,0.47949-0.8623
		S33.46289,27.13025,33.15918,26.95447z"/>
</g>
</svg>
